<svg width="25" height="24" viewBox="0 0 25 24" fill="none" xmlns="http://www.w3.org/2000/svg">
<path d="M12.5 6.6C13.6046 6.6 14.5 5.79411 14.5 4.8C14.5 3.80589 13.6046 3 12.5 3C11.3954 3 10.5 3.80589 10.5 4.8C10.5 5.79411 11.3954 6.6 12.5 6.6Z" fill="#1F2A37"/>
<path d="M12.5 13.8C13.6046 13.8 14.5 12.9941 14.5 12C14.5 11.0059 13.6046 10.2 12.5 10.2C11.3954 10.2 10.5 11.0059 10.5 12C10.5 12.9941 11.3954 13.8 12.5 13.8Z" fill="#1F2A37"/>
<path d="M12.5 21C13.6046 21 14.5 20.1941 14.5 19.2C14.5 18.2059 13.6046 17.4 12.5 17.4C11.3954 17.4 10.5 18.2059 10.5 19.2C10.5 20.1941 11.3954 21 12.5 21Z" fill="#1F2A37"/>
</svg>
