<svg width="16" height="15" viewBox="0 0 16 15" fill="none" xmlns="http://www.w3.org/2000/svg">
<path d="M7.38232 0.926987C7.68232 0.00598657 8.98532 0.00598657 9.28432 0.926987L10.3543 4.21899C10.4197 4.41948 10.5468 4.59417 10.7174 4.71809C10.888 4.84202 11.0934 4.90883 11.3043 4.90899H14.7663C15.7353 4.90899 16.1373 6.14899 15.3543 6.71899L12.5543 8.75299C12.3833 8.87702 12.256 9.052 12.1907 9.25284C12.1253 9.45368 12.1251 9.67007 12.1903 9.87099L13.2603 13.163C13.5603 14.084 12.5053 14.851 11.7203 14.281L8.92032 12.247C8.74952 12.123 8.54388 12.0562 8.33282 12.0562C8.12176 12.0562 7.91611 12.123 7.74532 12.247L4.94532 14.281C4.16132 14.851 3.10732 14.084 3.40632 13.163L4.47632 9.87099C4.54149 9.67007 4.54138 9.45368 4.47598 9.25284C4.41059 9.052 4.28329 8.87702 4.11232 8.75299L1.31332 6.71999C0.530318 6.14999 0.933318 4.90999 1.90132 4.90999H5.36232C5.57337 4.91004 5.77902 4.84332 5.94984 4.71938C6.12066 4.59544 6.24789 4.42064 6.31332 4.21999L7.38332 0.927987L7.38232 0.926987Z" fill="#111928"/>
</svg>
