<svg width="21" height="20" viewBox="0 0 21 20" fill="none" xmlns="http://www.w3.org/2000/svg">
<path d="M9.38232 2.92699C9.68232 2.00599 10.9853 2.00599 11.2843 2.92699L12.3543 6.21899C12.4197 6.41948 12.5468 6.59417 12.7174 6.71809C12.888 6.84202 13.0934 6.90883 13.3043 6.90899H16.7663C17.7353 6.90899 18.1373 8.14899 17.3543 8.71899L14.5543 10.753C14.3833 10.877 14.256 11.052 14.1907 11.2528C14.1253 11.4537 14.1251 11.6701 14.1903 11.871L15.2603 15.163C15.5603 16.084 14.5053 16.851 13.7203 16.281L10.9203 14.247C10.7495 14.123 10.5439 14.0562 10.3328 14.0562C10.1218 14.0562 9.91611 14.123 9.74532 14.247L6.94532 16.281C6.16132 16.851 5.10732 16.084 5.40632 15.163L6.47632 11.871C6.54149 11.6701 6.54138 11.4537 6.47598 11.2528C6.41059 11.052 6.28329 10.877 6.11232 10.753L3.31332 8.71999C2.53032 8.14999 2.93332 6.90999 3.90132 6.90999H7.36232C7.57337 6.91004 7.77902 6.84332 7.94984 6.71938C8.12066 6.59544 8.24789 6.42064 8.31332 6.21999L9.38332 2.92799L9.38232 2.92699Z" fill="#111928"/>
</svg>
